<?xml version="1.0" standalone="no"?>
<!DOCTYPE svg PUBLIC "-//W3C//DTD SVG 1.1//EN" "http://www.w3.org/Graphics/SVG/1.1/DTD/svg11.dtd" >
<svg xmlns="http://www.w3.org/2000/svg" xmlns:xlink="http://www.w3.org/1999/xlink" version="1.1" viewBox="-10 0 707 1000">
   <path fill="currentColor"
d="M20 460q0 -152 88.5 -242t250.5 -90q58 0 106.5 12t79.5 31.5t55 42.5t36.5 46.5t20 43t9.5 31.5l2 12h-139q-1 -4 -3 -11.5t-13.5 -26t-28.5 -33t-49.5 -26t-74.5 -11.5q-99 0 -150 59.5t-51 161.5q0 99 53 159.5t147 60.5q47 0 83 -13.5t55.5 -35t29.5 -41t15 -39.5
h-184v-108h316q1 21 1 41q0 142 -80 224.5t-236 82.5q-163 0 -251 -89t-88 -242z" />
</svg>
