<?xml version="1.0" standalone="no"?>
<!DOCTYPE svg PUBLIC "-//W3C//DTD SVG 1.1//EN" "http://www.w3.org/Graphics/SVG/1.1/DTD/svg11.dtd" >
<svg xmlns="http://www.w3.org/2000/svg" xmlns:xlink="http://www.w3.org/1999/xlink" version="1.1" viewBox="-10 0 591 1000">
   <path fill="currentColor"
d="M41 557q0 -104 65 -170t174 -66q68 0 120 31t79 89v-110h30v571q0 36 -14.5 49t-50.5 13h-371v-27h371q20 0 26.5 -7t6.5 -28v-227q-28 55 -79.5 85t-118.5 31h-3q-107 0 -171 -63.5t-64 -170.5zM130 710q55 54 149 54t147 -57.5t53 -149.5q0 -91 -53.5 -150t-146.5 -59
q-89 0 -147 53.5t-58 155.5q0 100 56 153z" />
</svg>
