<?xml version="1.0" standalone="no"?>
<!DOCTYPE svg PUBLIC "-//W3C//DTD SVG 1.1//EN" "http://www.w3.org/Graphics/SVG/1.1/DTD/svg11.dtd" >
<svg xmlns="http://www.w3.org/2000/svg" xmlns:xlink="http://www.w3.org/1999/xlink" version="1.1" viewBox="-10 0 487 1000">
   <path fill="currentColor"
d="M41 657h31q0 4 1.5 11.5t11.5 26t26.5 32.5t50.5 25.5t79 11.5q81 0 122.5 -27.5t41.5 -75.5v-5q-2 -41 -38.5 -63.5t-87.5 -30.5t-101.5 -16.5t-86 -33t-35.5 -68.5q0 -54 48 -88.5t129 -34.5q36 0 65.5 6.5t48 17t33 23t21.5 25.5t11.5 23.5t5.5 16.5l1 7h-30l-2 -10
q-2 -6 -12.5 -22t-26 -28t-46 -22t-69.5 -10q-59 0 -102 25.5t-43 68.5v2q1 36 36.5 54.5t86 25.5t101 16t86.5 37t38 79v2q0 57 -46.5 95t-148.5 38q-54 0 -94.5 -14t-59.5 -33.5t-30.5 -39t-13.5 -33.5z" />
</svg>
