<svg xmlns="http://www.w3.org/2000/svg" fill="none" viewBox="-16 4 96 16">
    <!-- green outline of the viewbox: -->
    <rect x="-16" y="4" width="96" height="16" stroke="green" fill="none" />

    <circle cx="-12" cy="12" r="10" fill="#2e9dfe" />
    
    <g transform="translate(2, 3) scale(0.02, 0.02)">
        <path fill="#000"
            d="M41 657h31q0 4 1.5 11.5t11.5 26t26.5 32.5t50.5 25.5t79 11.5q81 0 122.5 -27.5t41.5 -75.5v-5q-2 -41 -38.5 -63.5t-87.5 -30.5t-101.5 -16.5t-86 -33t-35.5 -68.5q0 -54 48 -88.5t129 -34.5q36 0 65.5 6.5t48 17t33 23t21.5 25.5t11.5 23.5t5.5 16.5l1 7h-30l-2 -10q-2 -6 -12.5 -22t-26 -28t-46 -22t-69.5 -10q-59 0 -102 25.5t-43 68.5v2q1 36 36.5 54.5t86 25.5t101 16t86.5 37t38 79v2q0 57 -46.5 95t-148.5 38q-54 0 -94.5 -14t-59.5 -33.5t-30.5 -39t-13.5 -33.5z" />
        <path fill="#000" transform="translate(400, 0)"
            d="M63 331l178 419l179 -419h31l-191 450h-38l-190 -450h31z" />
        <path fill="#000" transform="translate(800, 0)"
            d="M41 557q0 -104 65 -170t174 -66q68 0 120 31t79 89v-110h30v571q0 36 -14.5 49t-50.5 13h-371v-27h371q20 0 26.5 -7t6.5 -28v-227q-28 55 -79.5 85t-118.5 31h-3q-107 0 -171 -63.5t-64 -170.5zM130 710q55 54 149 54t147 -57.5t53 -149.5q0 -91 -53.5 -150t-146.5 -59q-89 0 -147 53.5t-58 155.5q0 100 56 153z" />
        <path fill="#000" transform="translate(1290, 0)"
            d="M95 682q23 -44 60 -73.5t82.5 -54.5t91 -48t84.5 -46.5t65 -56t30 -72.5q1 -11 1 -22q0 -66 -46.5 -110t-143.5 -44q-57 0 -99 16t-60.5 39t-29 45.5t-10.5 38.5l-1 16h-31q0 -9 1.5 -22t13.5 -44t34 -54.5t69.5 -42.5t112.5 -19q111 0 165.5 53.5t54.5 126.5q0 11 -1 23q-4 49 -36.5 89t-77.5 65.5t-98.5 54t-99.5 54t-80.5 67.5t-41.5 93h445v27h-477q0 -54 23 -99z" />
        <path fill="#000" transform="translate(1870, 0)"
            d="M20 460q0 -152 88.5 -242t250.5 -90q58 0 106.5 12t79.5 31.5t55 42.5t36.5 46.5t20 43t9.5 31.5l2 12h-139q-1 -4 -3 -11.5t-13.5 -26t-28.5 -33t-49.5 -26t-74.5 -11.5q-99 0 -150 59.5t-51 161.5q0 99 53 159.5t147 60.5q47 0 83 -13.5t55.5 -35t29.5 -41t15 -39.5h-184v-108h316q1 21 1 41q0 142 -80 224.5t-236 82.5q-163 0 -251 -89t-88 -242z" />
        <path fill="#000" transform="translate(2570, 0)"
            d="M302 138q265 0 265 205q0 95 -64.5 153.5t-200.5 58.5h-136v226h-130v-643h266zM166 246v200h136q63 0 99 -26.5t36 -76.5q0 -97 -135 -97h-136z" />
        <path fill="#000" transform="translate(3150, 0)"
            d="M166 138v378q0 77 34.5 120.5t123.5 43.5q90 0 124.5 -43.5t34.5 -120.5v-378h130v378q0 47 -7 84.5t-26 74.5t-50.5 61.5t-83.5 39.5t-122 15q-89 0 -148.5 -21.5t-88.5 -62.5t-40 -85.5t-11 -105.5v-378h130z" />
    </g>
</svg>