<?xml version="1.0" standalone="no"?>
<!DOCTYPE svg PUBLIC "-//W3C//DTD SVG 1.1//EN" "http://www.w3.org/Graphics/SVG/1.1/DTD/svg11.dtd" >
<svg xmlns="http://www.w3.org/2000/svg" xmlns:xlink="http://www.w3.org/1999/xlink" version="1.1" viewBox="-10 0 631 1000">
   <path fill="currentColor"
d="M95 682q23 -44 60 -73.5t82.5 -54.5t91 -48t84.5 -46.5t65 -56t30 -72.5q1 -11 1 -22q0 -66 -46.5 -110t-143.5 -44q-57 0 -99 16t-60.5 39t-29 45.5t-10.5 38.5l-1 16h-31q0 -9 1.5 -22t13.5 -44t34 -54.5t69.5 -42.5t112.5 -19q111 0 165.5 53.5t54.5 126.5q0 11 -1 23
q-4 49 -36.5 89t-77.5 65.5t-98.5 54t-99.5 54t-80.5 67.5t-41.5 93h445v27h-477q0 -54 23 -99z" />
</svg>
